<?xml version="1.0" encoding="UTF-8"?>
<!DOCTYPE svg PUBLIC "-//W3C//DTD SVG 1.1//EN" "http://www.w3.org/Graphics/SVG/1.1/DTD/svg11.dtd">
<!-- Creator: CorelDRAW 2018 (64-Bit) -->
<svg xmlns="http://www.w3.org/2000/svg" xml:space="preserve" width="8.114mm" height="8.385mm" version="1.1" style="shape-rendering:geometricPrecision; text-rendering:geometricPrecision; image-rendering:optimizeQuality; fill-rule:evenodd; clip-rule:evenodd"
viewBox="0 0 811.1 838.19"
 xmlns:xlink="http://www.w3.org/1999/xlink">
 <defs>
  <style type="text/css">
   <![CDATA[
    .fil0 {fill:white}
   ]]>
  </style>
 </defs>
 <g id="Слой_x0020_1">
  <metadata id="CorelCorpID_0Corel-Layer"/>
  <path class="fil0" d="M324.66 0c-179.39,0 -324.66,145.27 -324.66,324.66 0,179.14 145.27,324.6 324.66,324.6 68.79,0 132.74,-21.63 185.35,-58.16l245.55 245.37c2.06,2.24 5.77,2.24 7.84,0.19l46.23 -46.27c2.06,-2.17 1.87,-5.76 -0.17,-7.81l-242.23 -242.41c51.1,-57.24 82.07,-132.74 82.07,-215.51 0,-179.39 -145.45,-324.66 -324.64,-324.66zm0 611.07c-158.15,0 -286.41,-128.33 -286.41,-286.41 0,-158.15 128.26,-286.41 286.41,-286.41 158.08,0 286.41,128.26 286.41,286.41 0,158.08 -128.33,286.41 -286.41,286.41z"/>
 </g>
</svg>
