<svg xmlns="http://www.w3.org/2000/svg" viewBox="0 0 31 23.6"><path d="M27.2 0H3.8C1.7 0 0 1.7 0 3.8v16c0 2.1 1.7 3.8 3.8 3.8h23.4c2.1 0 3.8-1.7 3.8-3.8v-16C31 1.7 29.3 0 27.2 0zm-7.6 11.6l7.6-6.8c.4-.3.4-.9.1-1.2-.3-.4-.9-.4-1.2-.1l-10.5 9.4-2-1.8-.1-.1L5 3.5c-.3-.3-.9-.3-1.2.1s-.3.9.1 1.2l7.7 6.9L4 18.9c-.3.3-.4.9 0 1.2.2.2.4.3.6.3.2 0 .4-.1.6-.2l7.8-7.3 2.1 1.9c.2.1.4.2.6.2.2 0 .4-.1.6-.2l2.2-1.9 7.7 7.3c.2.2.4.2.6.2.2 0 .5-.1.6-.3.3-.3.3-.9 0-1.2l-7.8-7.3zm9.7 8.2c0 1.1-.9 2.1-2.1 2.1H3.8c-1.1 0-2.1-.9-2.1-2.1v-16c0-1.1.9-2.1 2.1-2.1h23.4c1.1 0 2.1.9 2.1 2.1v16z" fill="#5eab4c"/></svg>