<?xml version="1.0" encoding="UTF-8"?>
<!DOCTYPE svg PUBLIC "-//W3C//DTD SVG 1.1//EN" "http://www.w3.org/Graphics/SVG/1.1/DTD/svg11.dtd">
<!-- Creator: CorelDRAW 2018 (64-Bit) -->
<svg xmlns="http://www.w3.org/2000/svg" xml:space="preserve" width="31" height="45" version="1.1" style="shape-rendering:geometricPrecision; text-rendering:geometricPrecision; image-rendering:optimizeQuality; fill-rule:evenodd; clip-rule:evenodd"
viewBox="0 0 1546.31 2272.13"
 xmlns:xlink="http://www.w3.org/1999/xlink">
 <defs>
  <style type="text/css">
   <![CDATA[
    .fil0 {fill:#878787}
   ]]>
  </style>
 </defs>
 <g id="Слой_x0020_1">
  <metadata id="CorelCorpID_0Corel-Layer"/>
  <path class="fil0" d="M924.57 1780.6c37.87,-93.68 -19.42,-199 -69.73,-274.54 -24.64,-37.04 -52.07,-70.75 -79.79,-105.45 -11.87,7 -41.86,46.55 -49.99,57.97 -70.32,98.8 -173.22,250.72 -76.36,364.65 78.09,91.84 231.27,67.67 275.87,-42.63zm-565.43 -927.33c35.2,6.84 67.81,8.62 105.43,11.98l79.41 5.82c15.81,0.6 11.48,0.98 22.1,-5.95 24.87,-16.23 55.43,-19.68 87.03,-26.72 23.26,-5.18 86.14,-11.5 93,-13.64 4.72,-1.48 2.92,-0.71 5.64,-2.7 -63.48,-4.54 -145.85,-3.63 -209.98,1.86 -65.21,5.58 -85.14,10.25 -140.96,17.75l-39.94 10.4c-0.33,-0.52 -1.19,0.74 -1.73,1.2zm-140.39 1061.08c38.51,9.47 92.23,12.08 132.42,16.77 217.21,25.39 493.83,24.61 711.89,11.53 55.8,-3.35 214.37,-18.85 265.09,-28.05l0 -550.37 0.01 0 -0.01 -77.66c-15.91,-1.88 -47.71,4.48 -65.02,6.09 -63.53,5.89 -128.35,13.78 -191.03,17.11 -206.49,10.97 -388.54,13.83 -595.58,-0.56 -44.1,-3.07 -88.03,-5.96 -132.59,-10.19 -22.21,-2.11 -108.83,-15.03 -125.33,-12.24 -0.06,29.19 -0.25,58.79 -0.49,88.69l0 516.79c0.21,7.39 0.42,14.75 0.65,22.09zm1136.96 -1605.36c107.45,158.38 145,385.37 138.34,571.32 -19.29,-3.2 -37.05,-0.75 -55.74,-3.55l0.53 -31.23c10.81,-8.98 22.02,-17.09 25.08,-32.28 4.07,-20.23 -2.23,-32.78 -12.35,-43.58 -14.82,-15.83 -46.05,-29.56 -73.52,-38.14 -132.7,-41.45 -254.46,-43.82 -390.22,-56.54 -112.82,-10.57 -960.41,-20.03 -904.91,141.01 4.77,13.84 14.88,20.56 24.82,29.54l0.1 31.61c-18.46,1.5 -39.72,-1.16 -55.55,3.74 -6,-191.67 31.96,-419.25 143.09,-578.82 85.98,-123.46 154.49,-157.85 276.67,-213.05l7.56 -2.84c3.76,-1.42 -4.48,10.68 11.2,10.5 170.37,-2.08 358.96,-0.1 532.67,0.05 18.19,0.02 25.38,2.51 40.21,-5.03 1.84,-0.94 1.28,-5.98 16.97,0.41 116.68,47.51 204.18,112.39 275.06,216.88zm94.66 60.64c-62.7,-130.64 -162.09,-237.37 -292.76,-300.46 -24.31,-11.74 -63.55,-29.56 -86.13,-34.84 -0.13,-36.76 -11.59,-34.25 -45.68,-34.09l-500.56 0.04c-33.26,-0.01 -50.1,-5.48 -49.75,32.58 -23.26,10.42 -46.71,17.93 -70.85,28.98 -328.1,150.38 -408,502.45 -404.47,822.88 0.5,45.17 -6.72,76.04 37.19,88.27 1.4,24.8 0.05,32.66 19.91,43.11l50.32 1.22c3.45,42.28 0.29,83.11 0.46,123.38 1.29,310.08 -0.92,606.99 0.01,913.21 0.1,32.75 3.29,26.78 -6.55,30.72 -0.43,1.23 -104.28,62.15 40.43,118.42 58.41,22.71 126.85,30.83 190.8,41.73 146.88,25.04 520.35,35.36 669.61,20.37 98.8,-9.93 430.17,-26.37 473.3,-109.25 17.83,-34.25 -14.41,-63.56 -35.42,-72.33 -8.2,-11.41 -1.86,-866.98 -1.87,-952.09 0,-34.85 -2.51,-80.26 0.47,-113.83 46.22,-4.84 68.66,12.44 70.49,-44.24 38.38,-19.06 36.22,-14.37 36.91,-84.07 1.74,-177.18 -18.2,-357.95 -95.83,-519.72zm-141.44 480c-38.19,47.98 -1044.19,77.39 -1074.07,-4.1 12.55,-3.71 38.69,-7.26 52.82,-9.45 42.04,-6.48 252.41,-31.77 476.1,-35.11 219.58,-3.27 452.06,15.05 545.15,48.65zm-623.45 736.21c-39.82,107.57 2.27,111.01 -53.54,116.15 5.62,-62.76 56.92,-168.75 94.1,-208.19l-40.56 92.05z"/>
 </g>
</svg>
