<svg id="_1" data-name="1" xmlns="http://www.w3.org/2000/svg" viewBox="0 0 48.93 72" width="31" height="45"><defs><style>.cls-1{fill:#5eab4c;fill-rule:evenodd;}</style></defs><title>Artboard 1</title><path class="cls-1" d="M29.23,56.42c1.2-3-.62-6.3-2.21-8.7-.78-1.17-1.65-2.24-2.53-3.34a11.26,11.26,0,0,0-1.58,1.84c-2.23,3.13-5.49,8-2.42,11.56a5.23,5.23,0,0,0,8.74-1.36ZM11.31,27a32.15,32.15,0,0,0,3.34.38l2.52.18c.5,0,.36,0,.7-.19a8.25,8.25,0,0,1,2.76-.84c.73-.17,2.73-.37,2.94-.43s.1,0,.18-.09a46.16,46.16,0,0,0-6.65.06c-2.07.18-2.7.32-4.47.56L11.37,27s0,0-.06,0ZM6.86,60.66c0-.23,0-.46,0-.7V43.59c0-1,0-1.89,0-2.81.52-.09,3.27.32,4,.38,1.41.14,2.8.23,4.2.33a148.52,148.52,0,0,0,18.87,0c2-.1,4-.35,6.06-.54A13.49,13.49,0,0,1,42,40.77v2.46h0V60.67c-1.61.29-6.63.78-8.4.89a139.29,139.29,0,0,1-22.56-.37,36.23,36.23,0,0,1-4.2-.53Zm36-50.87c3.41,5,4.6,12.21,4.39,18.11-.62-.11-1.18,0-1.77-.12l0-1a1.84,1.84,0,0,0,.79-1,1.42,1.42,0,0,0-.39-1.38,6,6,0,0,0-2.33-1.21c-4.21-1.31-8.06-1.39-12.37-1.79C27.66,21.05.8,20.75,2.56,25.86a2.17,2.17,0,0,0,.79.93v1a9,9,0,0,0-1.76.11c-.19-6.07,1-13.28,4.53-18.34,2.73-3.91,4.9-5,8.77-6.75l.24-.09c.12,0-.14.34.35.33,5.4-.06,11.38,0,16.88,0a2.25,2.25,0,0,0,1.28-.15c.06,0,0-.19.54,0a18.12,18.12,0,0,1,8.71,6.87Zm3,1.92c2.46,5.13,3.09,10.86,3,16.47,0,2.21,0,2.06-1.17,2.67-.06,1.79-.77,1.24-2.23,1.4-.1,1.06,0,2.5,0,3.6,0,2.7-.2,29.81.06,30.18.67.27,1.69,1.2,1.12,2.29-1.36,2.62-11.87,3.14-15,3.46a118.25,118.25,0,0,1-21.21-.65,31.28,31.28,0,0,1-6.05-1.32C-.16,68,3.13,66.1,3.15,66.06c.31-.13.21.06.21-1,0-9.71,0-19.12,0-28.94,0-1.28.09-2.57,0-3.91l-1.59,0c-.63-.33-.59-.58-.63-1.37C-.28,30.44,0,29.47-.06,28-.17,17.88,2.36,6.72,12.75,2c.77-.35,1.51-.59,2.25-.92,0-1.2.52-1,1.58-1H32.44c1.08,0,1.44-.09,1.45,1.08a17.62,17.62,0,0,1,2.72,1.1,20,20,0,0,1,9.28,9.52ZM41.41,26.92c-1.21,1.52-33.09,2.46-34-.13.4-.11,1.23-.23,1.68-.3a137,137,0,0,1,15.08-1.11c7-.1,14.33.48,17.28,1.54ZM21.65,50.25c-1.26,3.41.08,3.52-1.69,3.68a14.45,14.45,0,0,1,3-6.59Z"/></svg>