<?xml version="1.0" encoding="UTF-8"?>
<!DOCTYPE svg PUBLIC "-//W3C//DTD SVG 1.1//EN" "http://www.w3.org/Graphics/SVG/1.1/DTD/svg11.dtd">
<!-- Creator: CorelDRAW 2018 (64-Bit) -->
<svg xmlns="http://www.w3.org/2000/svg" xml:space="preserve" width="8.1139mm" height="10.1161mm" version="1.1" style="shape-rendering:geometricPrecision; text-rendering:geometricPrecision; image-rendering:optimizeQuality; fill-rule:evenodd; clip-rule:evenodd"
viewBox="0 0 780.11 972.62"
 xmlns:xlink="http://www.w3.org/1999/xlink">
 <defs>
  <style type="text/css">
   <![CDATA[
    .fil0 {fill:#5EAB4C;fill-rule:nonzero}
   ]]>
  </style>
 </defs>
 <g id="Слой_x0020_1">
  <metadata id="CorelCorpID_0Corel-Layer"/>
  <path class="fil0" d="M389.86 0.01c-214.9,0 -389.86,174.95 -389.86,389.86 0,24.46 2.24,49.13 6.93,73.2 0.21,1.42 1.03,5.71 2.66,13.06 5.9,26.3 14.67,52.2 26.09,76.87 42.01,98.9 134.36,250.79 337.04,413.5 5.1,4.09 11.22,6.12 17.34,6.12 6.12,0 12.24,-2.04 17.34,-6.12 202.47,-162.72 295.05,-314.61 337.04,-413.5 11.42,-24.67 20.19,-50.37 26.1,-76.87 1.63,-7.35 2.45,-11.63 2.65,-13.06 4.49,-24.07 6.92,-48.74 6.92,-73.2 -0.39,-214.91 -175.34,-389.86 -390.25,-389.86zm0 146.6c-136.4,0 -247.54,111.12 -247.54,247.54 0,136.41 111.13,247.54 247.54,247.54 136.41,0 247.53,-111.12 247.53,-247.54 0,-136.41 -111.12,-247.54 -247.53,-247.54zm0 440.02c-106.23,0 -192.47,-86.46 -192.47,-192.48 0,-106.03 86.44,-192.48 192.47,-192.48 106.03,0 192.48,86.45 192.48,192.48 0,106.02 -86.25,192.48 -192.48,192.48zm328.69 -133.14c0,0.39 -0.21,0.81 -0.21,1.21 -0.19,1.03 -0.82,4.09 -1.83,8.77l0 0.41c-5.11,22.83 -12.65,45.06 -22.64,66.47 -0.2,0.21 -0.2,0.62 -0.41,0.82 -38.12,90.33 -121.72,228.17 -303.6,378.44 -181.87,-150.27 -265.48,-288.11 -303.61,-378.44 -0.19,-0.2 -0.19,-0.61 -0.4,-0.82 -9.79,-21.2 -17.34,-43.63 -22.63,-66.47l0 -0.41c-1.23,-4.68 -1.63,-7.74 -1.85,-8.77 0,-0.4 -0.19,-0.82 -0.19,-1.42 -4.09,-21 -6.11,-42.21 -6.11,-63.62 0,-184.52 150.27,-334.8 334.8,-334.8 184.52,0 334.81,150.28 334.81,334.8 0,21.61 -2.04,43.03 -6.11,63.83z"/>
 </g>
</svg>
