<?xml version="1.0" encoding="UTF-8"?>
<!DOCTYPE svg PUBLIC "-//W3C//DTD SVG 1.1//EN" "http://www.w3.org/Graphics/SVG/1.1/DTD/svg11.dtd">
<!-- Creator: CorelDRAW 2018 (64-Bit) -->
<svg xmlns="http://www.w3.org/2000/svg" xml:space="preserve" width="10.5834mm" height="10.5987mm" version="1.1" style="shape-rendering:geometricPrecision; text-rendering:geometricPrecision; image-rendering:optimizeQuality; fill-rule:evenodd; clip-rule:evenodd"
viewBox="0 0 1040.76 1042.26"
 xmlns:xlink="http://www.w3.org/1999/xlink">
 <defs>
  <style type="text/css">
   <![CDATA[
    .fil0 {fill:#5EAB4C;fill-rule:nonzero}
   ]]>
  </style>
 </defs>
 <g id="Слой_x0020_1">
  <metadata id="CorelCorpID_0Corel-Layer"/>
  <path class="fil0" d="M822.97 645.65c-21.35,-22.21 -47.08,-34.09 -74.35,-34.09 -27.05,0 -53.01,11.65 -75.23,33.88l-69.52 69.29c-5.72,-3.08 -11.44,-5.94 -16.94,-8.79 -7.92,-3.96 -15.4,-7.7 -21.78,-11.66 -65.11,-41.35 -124.28,-95.26 -181.03,-164.98 -27.51,-34.76 -45.97,-64.02 -59.4,-93.71 18.04,-16.5 34.76,-33.66 51.04,-50.16 6.17,-6.16 12.32,-12.54 18.48,-18.69 46.19,-46.19 46.19,-106.03 0,-152.23l-60.06 -60.06c-6.81,-6.81 -13.86,-13.86 -20.45,-20.89 -13.2,-13.64 -27.05,-27.72 -41.35,-40.93 -21.34,-21.11 -46.87,-32.32 -73.69,-32.32 -26.85,0 -52.79,11.21 -74.79,32.32l-0.44 0.44 -74.81 75.46c-28.15,28.15 -44.2,62.47 -47.73,102.29 -5.27,64.22 13.65,124.06 28.16,163.22 35.63,96.13 88.88,185.21 168.29,280.69 96.34,115.06 212.27,205.9 344.7,269.92 50.59,23.97 118.13,52.35 193.57,57.18 4.63,0.23 9.47,0.43 13.88,0.43 50.81,0 93.48,-18.24 126.93,-54.55 0.22,-0.44 0.65,-0.66 0.88,-1.09 11.45,-13.86 24.63,-26.4 38.5,-39.82 9.45,-9.03 19.13,-18.48 28.59,-28.38 21.79,-22.66 33.22,-49.06 33.22,-76.11 0,-27.27 -11.65,-53.46 -33.87,-75.46l-120.77 -121.2zm217.33 -185.89c-19.57,-114.81 -73.69,-219.3 -156.84,-302.46 -83.15,-83.15 -187.63,-137.26 -302.47,-156.84 -16.06,-2.86 -31.23,8.13 -34.08,24.19 -2.65,16.28 8.13,31.47 24.41,34.32 102.52,17.38 196.01,66 270.35,140.13 74.35,74.34 122.75,167.83 140.13,270.35 2.42,14.5 14.95,24.62 29.25,24.62 1.76,0 3.3,-0.21 5.05,-0.43 16.07,-2.42 27.07,-17.83 24.2,-33.89zm-477.78 -211.83c57.63,9.68 109.98,36.97 151.78,78.76 41.79,41.78 68.86,94.14 78.76,151.78 2.41,14.52 14.95,24.64 29.26,24.64 1.75,0 3.29,-0.23 5.06,-0.44 16.27,-2.65 27.05,-18.04 24.41,-34.32 -11.88,-69.73 -44.87,-133.31 -95.25,-183.68 -50.37,-50.38 -113.95,-83.38 -183.69,-95.25 -16.27,-2.64 -31.44,8.13 -34.31,24.19 -2.86,16.06 7.7,31.67 23.98,34.32zm339.2 629.35c-0.23,0 -0.23,0.23 0,0 -8.58,9.25 -17.38,17.61 -26.85,26.85 -14.29,13.64 -28.81,27.94 -42.44,44 -22.22,23.76 -48.4,34.97 -82.72,34.97 -3.29,0 -6.81,0 -10.11,-0.21 -65.33,-4.18 -126.05,-29.71 -171.58,-51.48 -124.51,-60.27 -233.84,-145.85 -324.69,-254.29 -75,-90.41 -125.17,-174 -158.37,-263.75 -20.46,-54.76 -27.94,-97.45 -24.63,-137.7 2.19,-25.75 12.09,-47.07 30.35,-65.34l75.02 -75.01c10.77,-10.12 22.2,-15.62 33.44,-15.62 13.86,0 25.07,8.37 32.11,15.4l0.66 0.66c13.42,12.54 26.18,25.52 39.6,39.37 6.82,7.04 13.86,14.08 20.9,21.34l60.05 60.06c23.33,23.32 23.33,44.87 0,68.19 -6.37,6.38 -12.53,12.76 -18.91,18.92 -18.48,18.92 -36.08,36.52 -55.21,53.67 -0.44,0.44 -0.89,0.67 -1.11,1.09 -18.91,18.93 -15.39,37.41 -11.44,49.94l0.67 1.99c15.62,37.83 37.61,73.47 71.05,115.93l0.22 0.22c60.71,74.79 124.72,133.09 195.34,177.75 9.02,5.72 18.25,10.34 27.05,14.73 7.93,3.96 15.4,7.7 21.78,11.66 0.89,0.44 1.76,1.1 2.65,1.54 7.47,3.73 14.5,5.5 21.77,5.5 18.26,0 29.7,-11.44 33.44,-15.17l75.23 -75.24c7.48,-7.48 19.36,-16.5 33.22,-16.5 13.64,0 24.86,8.58 31.67,16.06l121.64 121.64c22.67,22.44 22.67,45.54 0.23,68.85z"/>
 </g>
</svg>
