<svg xmlns="http://www.w3.org/2000/svg" viewBox="0 0 96 93"><style>.st0{fill:#022409}</style><path class="st0" d="M2.5 19.5v-18h7.2c1 0 2 0 2.9.2.9.1 1.7.4 2.4.8s1.2 1 1.5 1.7c.4.8.6 1.6.6 2.4 0 1.4-.5 2.8-1.6 3.9-1 1.1-2.9 1.6-5.6 1.6H5v7.3l-2.5.1zM5 10h5c1.2.1 2.5-.2 3.5-.9.7-.6 1.1-1.5 1-2.4 0-.7-.2-1.4-.6-1.9s-.9-.9-1.6-1c-.8-.1-1.6-.2-2.4-.2h-5L5 10zM0 35.5c-.1-2.5.9-5 2.8-6.6 2-1.7 4.5-2.5 7.1-2.4 1.8 0 3.5.4 5.1 1.1 1.4.7 2.7 1.8 3.5 3.1.8 1.4 1.2 3 1.2 4.6s-.4 3.2-1.3 4.6c-.9 1.4-2.1 2.4-3.6 3.1-1.6.7-3.3 1.1-5 1-1.8 0-3.6-.4-5.2-1.2-2.9-1.3-4.7-4.1-4.6-7.3zm2.8 0c-.1 1.8.6 3.6 2 4.8 1.4 1.2 3.2 1.8 5 1.8 1.9.1 3.7-.6 5.1-1.8 1.4-1.3 2.1-3.2 2-5.1 0-1.3-.3-2.5-.9-3.6-.6-1-1.4-1.9-2.5-2.4-1.1-.6-2.4-.9-3.7-.8-1.8-.1-3.6.5-5 1.6-1.3 1.2-2 3-2 5.5zm12.9 27l2.5.6c-.4 1.7-1.4 3.3-2.9 4.4-1.5 1-3.3 1.6-5.1 1.5-1.7.1-3.5-.3-5-1.1-1.3-.8-2.4-1.9-3-3.3-.7-1.5-1-3.1-1-4.7 0-1.7.4-3.3 1.1-4.8.9-1.5 2-2.6 3.4-3.3 1.5-.7 3-1 4.7-1 1.7-.1 3.4.4 4.8 1.3 1.3.9 2.3 2.2 2.7 3.8l-2.5.5c-.3-1.1-1-2.1-1.9-2.8-1-.6-2.1-.9-3.2-.9-1.3 0-2.6.3-3.7 1-1 .6-1.7 1.5-2.1 2.6-.4 1.1-.6 2.2-.6 3.4 0 1.3.2 2.7.7 3.9.4 1.1 1.2 1.9 2.2 2.5s2.1.8 3.3.8c1.3 0 2.6-.4 3.6-1.2 1-.7 1.8-1.9 2-3.2zM8.4 92.7V77.4H1.5v-2H18v2h-6.8v15.3H8.4zm24.1-10v2h7.6c0 1.7-.7 3.4-1.9 4.6-1.2 1.1-2.8 1.7-4.5 1.7-3.2 0-5.3-1.5-6.1-4.4l-2.6.6c1.2 3.8 4 5.7 8.5 5.7 3.2 0 5.6-.9 7.2-2.6 1.6-1.8 2.4-4.1 2.2-6.5 0-1.5-.3-3-1-4.3-.8-1.3-1.9-2.5-3.2-3.2-1.6-.9-3.4-1.3-5.2-1.3-1.9-.1-3.7.4-5.3 1.3-1.4.8-2.4 2.2-2.9 3.7l2.6.6c.8-2.4 2.6-3.6 5.6-3.6 1.7-.1 3.4.4 4.7 1.5 1.2 1.1 1.8 2.6 1.9 4.1l-7.6.1zm22.7-7.3H58V83c1 .1 1.9-.1 2.7-.6.8-.9 1.5-1.8 2-2.9.4-.9.9-1.7 1.5-2.4.4-.5 1-.9 1.6-1.2.8-.3 1.6-.5 2.4-.5h1.7v2h-1.2c-.7 0-1.4.1-2 .5-.7.6-1.2 1.4-1.5 2.3-.4 1-1 2-1.8 2.8-.5.4-1.1.7-1.8.9 1.7.5 3.1 1.6 4.1 3.1l4.4 5.8h-3.5L63 88.1c-.7-1-1.5-1.9-2.5-2.7-.8-.5-1.7-.8-2.6-.7v8.1H55V75.4h.2zm38 11.2l2.7.6c-.5 1.7-1.5 3.3-3 4.3-1.6 1-3.5 1.5-5.4 1.5-1.9.1-3.7-.3-5.4-1.2-1.4-.7-2.5-1.9-3.1-3.3-.7-1.4-1.1-3-1.1-4.6 0-1.7.4-3.3 1.2-4.7.8-1.4 2-2.4 3.4-3.1 1.5-.7 3.2-1 4.9-1 1.8-.1 3.6.4 5.1 1.3 1.4.9 2.4 2.2 2.9 3.7l-2.6.5c-.4-1.1-1.1-2.1-2-2.8-1-.6-2.2-.9-3.4-.9-1.4 0-2.7.3-3.9 1-1 .6-1.8 1.4-2.3 2.5a9.6 9.6 0 0 0-.6 3.3c0 1.3.2 2.6.8 3.9.5 1.1 1.3 1.9 2.4 2.5 1.1.5 2.2.8 3.4.8 1.4 0 2.7-.4 3.8-1.1 1.1-.7 1.9-1.9 2.2-3.2zm-66-84h2v66.1h-2V2.6z"/><path class="st0" d="M27.4 66.9h66.1v2H27.4v-2z"/><linearGradient id="SVGID_1_" gradientUnits="userSpaceOnUse" x1="83.808" y1="319.86" x2="72.888" y2="295.44" gradientTransform="translate(0 -290)"><stop offset="0" stop-color="#000b00"/><stop offset=".28" stop-color="#005f2a"/><stop offset=".54" stop-color="#36a251"/><stop offset="1" stop-color="#79c795"/></linearGradient><path d="M78.3 35.3c9.8 0 17.7-7.9 17.7-17.6C96 7.9 88.1 0 78.4 0S60.7 7.8 60.7 17.6v.1c0 9.7 7.9 17.6 17.6 17.6z" fill="url(#SVGID_1_)"/><linearGradient id="SVGID_2_" gradientUnits="userSpaceOnUse" x1="40.35" y1="325.794" x2="29.91" y2="302.464" gradientTransform="translate(0 -290)"><stop offset="0" stop-color="#1b2123"/><stop offset=".28" stop-color="#636567"/><stop offset=".54" stop-color="#b1b3b5"/><stop offset="1" stop-color="#e4e5e6"/></linearGradient><path d="M33.4 11.8c8.3 0 15.1 6.7 15.1 15s-6.7 15.1-15 15.1c-1.5 0-2.9-.2-4.3-.6V12.4c1.4-.4 2.8-.6 4.2-.6z" fill="url(#SVGID_2_)"/><linearGradient id="SVGID_3_" gradientUnits="userSpaceOnUse" x1="72.398" y1="374.298" x2="58.178" y2="342.518" gradientTransform="translate(0 -290)"><stop offset="0" stop-color="#38000b"/><stop offset=".28" stop-color="#5e131b"/><stop offset=".54" stop-color="#b23c4b"/><stop offset="1" stop-color="#d3698b"/></linearGradient><path d="M63.7 46c11.6 0 21.1 9.3 21.4 20.9H42.3C42.6 55.2 52.1 46 63.7 46z" fill="url(#SVGID_3_)"/></svg>